<svg xmlns="http://www.w3.org/2000/svg" width="256" height="256" viewBox="0 0 100 100" fill="none">
  <circle cx="50" cy="50" r="50" fill="url(#paint0_linear_10573_6151)"/>
  <path d="M21.2522 55.9719C20.4855 55.9719 19.7689 55.9247 19.1022 55.8302C18.4355 55.7358 17.8244 55.5969 17.2689 55.4135C16.7189 55.2247 16.2272 54.9969 15.7939 54.7302C15.3661 54.4635 15.005 54.158 14.7105 53.8135C14.4217 53.4635 14.1994 53.0802 14.0439 52.6635C13.8883 52.2469 13.8105 51.7969 13.8105 51.3135V51.2969C13.8105 50.8247 13.8911 50.383 14.0522 49.9719C14.2133 49.5552 14.4439 49.1747 14.7439 48.8302C15.0439 48.4858 15.4105 48.1774 15.8439 47.9052C16.2828 47.633 16.7772 47.4024 17.3272 47.2135C17.8772 47.0247 18.48 46.8802 19.1355 46.7802C19.7967 46.6802 20.4994 46.6302 21.2439 46.6302C21.9383 46.6302 22.5994 46.6802 23.2272 46.7802C23.855 46.8802 24.4383 47.033 24.9772 47.2385C25.5217 47.4441 26.0161 47.7024 26.4605 48.0135C26.9105 48.3191 27.2994 48.6774 27.6272 49.0885C27.9605 49.4997 28.2272 49.9663 28.4272 50.4885C28.6328 51.0052 28.7633 51.5747 28.8189 52.1969V52.2052H16.5272L16.5355 50.3219H24.7605V50.3135C24.6828 50.1302 24.58 49.9608 24.4522 49.8052C24.33 49.6497 24.1855 49.5108 24.0189 49.3885C23.8522 49.2663 23.6633 49.1608 23.4522 49.0719C23.2467 48.9774 23.0217 48.8997 22.7772 48.8385C22.5383 48.7774 22.2828 48.733 22.0105 48.7052C21.7383 48.6774 21.4494 48.6635 21.1439 48.6635C20.6383 48.6635 20.1633 48.7108 19.7189 48.8052C19.2744 48.8997 18.8855 49.0552 18.5522 49.2719C18.2244 49.483 17.9689 49.7552 17.7855 50.0885C17.6022 50.4219 17.5133 50.8274 17.5189 51.3052V51.3219C17.5133 51.6274 17.555 51.9024 17.6439 52.1469C17.7383 52.3913 17.8717 52.608 18.0439 52.7969C18.2161 52.9858 18.4217 53.1497 18.6605 53.2885C18.905 53.4219 19.1717 53.533 19.4605 53.6219C19.7494 53.7052 20.055 53.7691 20.3772 53.8135C20.6994 53.8524 21.03 53.8719 21.3689 53.8719C21.7022 53.8719 22.03 53.8552 22.3522 53.8219C22.68 53.783 22.9883 53.7274 23.2772 53.6552C23.5661 53.583 23.8272 53.4913 24.0605 53.3802C24.2994 53.2635 24.4967 53.1247 24.6522 52.9635H28.6855C28.4578 53.4691 28.1244 53.9108 27.6855 54.2885C27.2467 54.6608 26.7133 54.9719 26.0855 55.2219C25.4578 55.4719 24.7383 55.658 23.9272 55.7802C23.1161 55.908 22.2244 55.9719 21.2522 55.9719Z" fill="white"/>
  <path d="M30.7806 55.6969V43.4469H41.9056C42.5556 43.4469 43.1306 43.483 43.6306 43.5552C44.1306 43.6274 44.5639 43.7302 44.9306 43.8635C45.3028 43.9969 45.6139 44.158 45.8639 44.3469C46.1195 44.5358 46.3223 44.7469 46.4723 44.9802C46.6278 45.208 46.7389 45.458 46.8056 45.7302C46.8723 45.9969 46.9056 46.2774 46.9056 46.5719V46.5885C46.9056 46.8552 46.875 47.1163 46.8139 47.3719C46.7528 47.6219 46.6639 47.8524 46.5473 48.0635C46.4306 48.2747 46.2862 48.4663 46.1139 48.6385C45.9473 48.8108 45.7528 48.9608 45.5306 49.0885V49.1052C45.8639 49.2052 46.1584 49.3497 46.4139 49.5385C46.6695 49.7219 46.8834 49.9358 47.0556 50.1802C47.2278 50.4247 47.3556 50.6941 47.4389 50.9885C47.5278 51.2774 47.5723 51.5802 47.5723 51.8969V51.9135C47.5723 52.5747 47.4556 53.1441 47.2223 53.6219C46.9945 54.0941 46.6556 54.4858 46.2056 54.7969C45.7556 55.1024 45.1973 55.3302 44.5306 55.4802C43.8695 55.6247 43.1056 55.6969 42.2389 55.6969H30.7806ZM34.6889 48.2302H41.2306C41.5028 48.2302 41.7445 48.2108 41.9556 48.1719C42.1667 48.133 42.3417 48.0691 42.4806 47.9802C42.6195 47.8858 42.725 47.7663 42.7973 47.6219C42.8695 47.4774 42.9056 47.2997 42.9056 47.0885V47.0719C42.9056 46.8608 42.8695 46.6858 42.7973 46.5469C42.725 46.4024 42.6195 46.2913 42.4806 46.2135C42.3417 46.1302 42.1667 46.0719 41.9556 46.0385C41.7445 45.9997 41.5028 45.9802 41.2306 45.9802H34.6889V48.2302ZM34.6889 53.1635H41.6889C42.0112 53.1635 42.2889 53.1385 42.5223 53.0885C42.7556 53.0385 42.9445 52.9663 43.0889 52.8719C43.2389 52.7719 43.35 52.6469 43.4223 52.4969C43.4945 52.3413 43.5306 52.1608 43.5306 51.9552V51.9385C43.5306 51.7274 43.4945 51.5469 43.4223 51.3969C43.35 51.2413 43.2389 51.1135 43.0889 51.0135C42.9445 50.908 42.7556 50.8302 42.5223 50.7802C42.2889 50.7302 42.0112 50.7052 41.6889 50.7052H34.6889V53.1635Z" fill="white"/>
  <path d="M55.148 55.6969V46.0885H48.298V43.4469H65.8897V46.0885H59.048V55.6969H55.148Z" fill="white"/>
  <path d="M75.9273 55.9719C74.9996 55.9719 74.119 55.908 73.2857 55.7802C72.4523 55.6524 71.6801 55.4663 70.969 55.2219C70.2635 54.9719 69.6246 54.6663 69.0523 54.3052C68.4857 53.9385 68.0023 53.5191 67.6023 53.0469C67.2023 52.5747 66.894 52.0497 66.6773 51.4719C66.4607 50.8885 66.3523 50.258 66.3523 49.5802V49.5635C66.3523 48.5413 66.5912 47.6358 67.069 46.8469C67.5468 46.0524 68.2107 45.383 69.0607 44.8385C69.9107 44.2941 70.9218 43.8802 72.094 43.5969C73.2662 43.3135 74.5468 43.1719 75.9357 43.1719C76.719 43.1719 77.4718 43.2191 78.194 43.3135C78.9218 43.4024 79.6079 43.5358 80.2523 43.7135C80.8968 43.8858 81.4968 44.0997 82.0523 44.3552C82.6134 44.6108 83.1134 44.9052 83.5523 45.2385C83.9912 45.5719 84.3634 45.9413 84.669 46.3469C84.9801 46.7524 85.2135 47.1913 85.369 47.6635H81.0357C80.8635 47.3358 80.6051 47.0524 80.2607 46.8135C79.9218 46.5747 79.5246 46.3774 79.069 46.2219C78.6134 46.0663 78.119 45.9497 77.5857 45.8719C77.0523 45.7941 76.5107 45.7552 75.9607 45.7552C75.494 45.7552 75.0329 45.7885 74.5773 45.8552C74.1273 45.9219 73.6968 46.0247 73.2857 46.1635C72.8746 46.2969 72.494 46.4691 72.144 46.6802C71.794 46.8913 71.4885 47.1385 71.2273 47.4219C70.9718 47.6997 70.7718 48.0163 70.6273 48.3719C70.4829 48.7274 70.4107 49.1247 70.4107 49.5635V49.5802C70.4107 50.0135 70.4829 50.4108 70.6273 50.7719C70.7718 51.1274 70.9718 51.4469 71.2273 51.7302C71.4885 52.008 71.794 52.2524 72.144 52.4635C72.494 52.6747 72.8746 52.8469 73.2857 52.9802C73.6968 53.1135 74.1273 53.2163 74.5773 53.2885C75.0329 53.3552 75.494 53.3885 75.9607 53.3885C76.5107 53.3885 77.0523 53.3497 77.5857 53.2719C78.119 53.1941 78.6134 53.0774 79.069 52.9219C79.5246 52.7663 79.9218 52.5691 80.2607 52.3302C80.6051 52.0913 80.8635 51.808 81.0357 51.4802H85.369C85.1357 52.1858 84.7301 52.8163 84.1523 53.3719C83.5801 53.9274 82.8773 54.3997 82.044 54.7885C81.2162 55.1719 80.2801 55.4663 79.2357 55.6719C78.1968 55.8719 77.094 55.9719 75.9273 55.9719Z" fill="white"/>
  <defs>
    <linearGradient id="paint0_linear_10573_6151" x1="99.4656" y1="4.39669" x2="-92.2587" y2="59.6756" gradientUnits="userSpaceOnUse">
      <stop offset="0.15" stop-color="#0C0C4F"/>
      <stop offset="0.6" stop-color="#EC796B"/>
      <stop offset="1" stop-color="#D672EF"/>
    </linearGradient>
  </defs>
</svg>
