<svg xmlns="http://www.w3.org/2000/svg" width="256" height="256" viewBox="0 0 32 32" fill="none">
  <path d="M16 0C7.17657 0 0 7.17659 0 16C0 24.8235 7.17657 32.0001 16 32.0001C24.8234 32.0001 32 24.8235 32 16C32 7.17659 24.8234 0 16 0ZM16 29.3594C8.63177 29.3594 2.64064 23.3683 2.64064 16C2.64064 8.63178 8.63177 2.64064 16 2.64064C23.3682 2.64064 29.3594 8.63178 29.3594 16C29.3594 23.3683 23.3682 29.3594 16 29.3594Z" fill="#133348"/>
  <path d="M16 30C23.732 30 30 23.732 30 16C30 8.26801 23.732 2 16 2C8.26801 2 2 8.26801 2 16C2 23.732 8.26801 30 16 30Z" fill="white"/>
  <path d="M16 28.6065C22.9626 28.6065 28.6069 22.9621 28.6069 15.9995C28.6069 9.0369 22.9626 3.39258 16 3.39258C9.03738 3.39258 3.39307 9.0369 3.39307 15.9995C3.39307 22.9621 9.03738 28.6065 16 28.6065Z" fill="#133348"/>
  <path d="M22.3666 14.4324C22.6333 12.7513 21.2769 11.8474 19.4238 11.2443L20.0251 8.96646L18.5575 8.62159L17.9715 10.8392C17.5859 10.7478 17.1902 10.6628 16.7953 10.5778L17.3855 8.34568L15.9179 8L15.3166 10.277C14.9973 10.208 14.6831 10.1407 14.379 10.0685L14.3807 10.0613L12.356 9.58404L11.9654 11.0646C11.9654 11.0646 13.055 11.3004 13.0321 11.3149C13.6266 11.4552 13.7336 11.8266 13.7157 12.1217L13.0312 14.7163C13.072 14.726 13.1246 14.7404 13.1841 14.762L13.0287 14.726L12.069 18.3608C11.9959 18.5309 11.8116 18.7867 11.3955 18.6897C11.4108 18.7097 10.3288 18.4386 10.3288 18.4386L9.6001 20.0251L11.511 20.475C11.866 20.5592 12.2142 20.6475 12.5565 20.7301L11.9492 23.0335L13.4159 23.3784L14.0172 21.1006C14.4181 21.2025 14.8071 21.2971 15.1876 21.3869L14.588 23.6551L16.0555 24L16.6628 21.7013C19.1665 22.1489 21.0485 21.9684 21.8409 19.8302C22.4795 18.109 21.8094 17.1152 20.4922 16.468C21.4519 16.2595 22.1738 15.6635 22.3666 14.4324ZM19.0119 18.8741C18.5592 20.5961 15.4891 19.6649 14.4937 19.4316L15.3005 16.3798C16.2959 16.6148 19.4866 17.0792 19.0119 18.8741ZM19.4663 14.4075C19.0527 15.9739 16.498 15.1775 15.67 14.9826L16.4003 12.2155C17.2284 12.4104 19.8977 12.7738 19.4663 14.4075Z" fill="white"/>
</svg>
