<svg width="256" height="256" viewBox="0 0 256 256" fill="none" xmlns="http://www.w3.org/2000/svg">
  <path d="M128 255.431C198.378 255.431 255.431 198.378 255.431 128C255.431 57.6218 198.378 0.568909 128 0.568909C57.6217 0.568909 0.568848 57.6218 0.568848 128C0.568848 198.378 57.6217 255.431 128 255.431Z" fill="url(#paint0_linear_53_7)"/>
  <path d="M128 13.6859C64.8695 13.6859 13.6858 64.8534 13.6858 128C13.6858 185.572 56.2549 233.212 111.665 241.128C113.81 241.453 115.988 241.697 118.199 241.875C120.361 242.07 122.539 242.184 124.733 242.249C125.822 242.282 126.911 242.298 128 242.298C129.089 242.298 130.178 242.298 131.267 242.249C133.461 242.2 135.639 242.07 137.801 241.875C139.995 241.697 142.173 241.453 144.335 241.144C199.729 233.228 242.314 185.588 242.314 128C242.314 64.8534 191.13 13.6859 128 13.6859Z" fill="url(#paint1_linear_53_7)"/>
  <path d="M177.948 129.398L128 46.6814L78.0515 129.398L128 158.818L177.948 129.398ZM78.0515 140.174L128 210.538L177.948 140.174L128 169.74L78.0515 140.174Z" fill="white"/>
  <defs>
    <linearGradient id="paint0_linear_53_7" x1="218.112" y1="37.888" x2="37.8879" y2="218.096" gradientUnits="userSpaceOnUse">
      <stop stop-color="#F2681D"/>
      <stop offset="1" stop-color="#F89863"/>
    </linearGradient>
    <linearGradient id="paint1_linear_53_7" x1="47.1756" y1="208.825" x2="208.829" y2="47.1718" gradientUnits="userSpaceOnUse">
      <stop stop-color="#F2681D"/>
      <stop offset="1" stop-color="#F89863"/>
    </linearGradient>
  </defs>
</svg>
