<svg width="256" height="256" viewBox="0 0 256 256" fill="none" xmlns="http://www.w3.org/2000/svg">
<path d="M128 0C57.41 0 0 57.41 0 128C0 198.59 57.41 256 128 256C198.59 256 256 198.59 256 128C256 57.41 198.59 0 128 0Z" fill="#0095AB" style="fill:#0095AB;fill:color(display-p3 0.0000 0.5843 0.6706);fill-opacity:1;"/>
<path d="M139.88 83.5216L114.44 101.322V68.1516L139.88 50.3516L165.22 68.0916V119.092L139.88 101.312V83.5116V83.5216Z" fill="white" style="fill:white;fill-opacity:1;"/>
<path d="M90.7803 84.6719L114.44 101.292V170.112L139.88 152.352V187.852L114.44 205.652L90.7803 188.952V84.6719Z" fill="white" style="fill:white;fill-opacity:1;"/>
<path d="M139.88 152.355L165.22 170.115V136.875L139.88 119.055V152.355Z" fill="white" style="fill:white;fill-opacity:1;"/>
</svg>
