<svg xmlns="http://www.w3.org/2000/svg" width="220" height="220" fill="none" viewBox="0 0 220 220"><path fill="#510dc1" d="M110 220c60.751 0 110-49.249 110-110S170.751 0 110 0 0 49.249 0 110s49.249 110 110 110"/><path stroke="url(#a)" stroke-width="36" d="M110 23c48.049 0 87 38.951 87 87s-38.951 87-87 87-87-38.951-87-87 38.951-87 87-87Z"/><path fill="#510dc1" d="M110 202c50.81 0 92-41.19 92-92s-41.19-92-92-92-92 41.19-92 92 41.19 92 92 92"/><path fill="url(#b)" d="M105.259 174v-14.154C81.999 157.943 66.6 146.371 66 125.553h20.087c.457 12.381 8.757 17.555 19.181 19.053v-28.713c-24.613-4.495-36.39-12.519-36.39-29.66 0-15.24 14.35-26.123 36.39-27.216V45h11.473v14.154c24.165 2.179 35.791 14.697 36.543 32.52h-19.629c-.6-9.936-5.889-15.644-16.914-17.28v26.535C147.7 106.233 156 115.35 156 130.323c0 17.96-16.008 28.575-39.259 29.66V174zM89.708 85.698c0 5.984 2.42 9.66 15.551 12.924V73.998c-9.51.955-15.551 5.303-15.551 11.7m27.033 59.322c11.025-.956 18.419-5.717 18.419-13.879 0-5.984-3.173-9.523-18.419-13.061z"/><defs><linearGradient id="a" x1="110" x2="110" y1="5" y2="215" gradientUnits="userSpaceOnUse"><stop offset=".048" stop-color="#64ffb7"/><stop offset="1" stop-color="#00b25f"/></linearGradient><linearGradient id="b" x1="111" x2="111" y1="45" y2="174" gradientUnits="userSpaceOnUse"><stop stop-color="#e2dbff"/><stop offset=".976" stop-color="#fbfaff"/></linearGradient></defs></svg>