<svg xmlns="http://www.w3.org/2000/svg" width="220" height="220" fill="none" viewBox="0 0 220 220"><path fill="#510dc1" d="M110 220c60.751 0 110-49.249 110-110S170.751 0 110 0 0 49.249 0 110s49.249 110 110 110"/><path stroke="url(#a)" stroke-width="36" d="M110 23c48.049 0 87 38.951 87 87s-38.951 87-87 87-87-38.951-87-87 38.951-87 87-87Z"/><path fill="#510dc1" d="M110 202c50.81 0 92-41.19 92-92s-41.19-92-92-92-92 41.19-92 92 41.19 92 92 92"/><path fill="url(#b)" d="M71.103 148.62c14.868-7.814 18.022-16.83 15.168-27.5H69v-11.421h12.766c-3.605-7.213-6.759-13.674-6.759-23.743C75.007 68.374 89.575 55 111.652 55c24.33 0 38.147 13.675 38.147 36.967h-19.524c.15-13.374-7.509-19.836-18.623-19.836-10.363 0-16.97 5.56-16.97 14.727 0 8.415 4.054 15.628 7.508 22.841h33.191v11.421h-29.136c1.502 9.768-2.102 19.385-10.062 26.749H151V165H71.103z"/><defs><linearGradient id="a" x1="110" x2="110" y1="5" y2="215" gradientUnits="userSpaceOnUse"><stop stop-color="#fff"/><stop offset=".45" stop-color="#569cff"/><stop offset="1" stop-color="#fff"/></linearGradient><linearGradient id="b" x1="110" x2="110" y1="55" y2="165" gradientUnits="userSpaceOnUse"><stop stop-color="#e2dbff"/><stop offset=".976" stop-color="#fbfaff"/></linearGradient></defs></svg>