<svg width="256" height="256" viewBox="0 0 256 256" fill="none" xmlns="http://www.w3.org/2000/svg">
  <path d="M256 128C256 57.3076 198.692 0 128 0C57.3076 0 0 57.3076 0 128C0 198.692 57.3076 256 128 256C198.692 256 256 198.692 256 128Z" fill="url(#paint0_radial_56_2)" />
  <path d="M256 128C256 57.3076 198.692 0 128 0C57.3076 0 0 57.3076 0 128C0 198.692 57.3076 256 128 256C198.692 256 256 198.692 256 128Z" fill="url(#paint1_radial_56_2)" />
  <path d="M256 128C256 57.3076 198.692 0 128 0C57.3076 0 0 57.3076 0 128C0 198.692 57.3076 256 128 256C198.692 256 256 198.692 256 128Z" fill="url(#paint2_radial_56_2)" />
  <path d="M256 128C256 57.3076 198.692 0 128 0C57.3076 0 0 57.3076 0 128C0 198.692 57.3076 256 128 256C198.692 256 256 198.692 256 128Z" fill="url(#paint3_radial_56_2)" />
  <path d="M171.853 148.765C170.681 144.698 168.57 141.21 165.508 138.351C164.248 137.14 162.58 135.861 160.507 134.528C159.167 133.666 159.629 131.371 161.187 131.04C163.607 130.526 165.762 129.802 167.651 128.853C170.866 127.243 173.508 125.146 175.617 122.577C177.762 120.002 179.267 117.095 180.081 113.825C181.197 109.352 180.897 104.895 179.187 100.469C177.46 96.0388 174.411 92.2261 169.988 89.009C168.585 87.9748 166.897 87.0075 165.009 86.0812C164.312 85.7391 163.942 84.9557 164.141 84.2048L167.726 70.7046C167.956 69.841 167.433 68.9574 166.567 68.7411L152.955 65.3474C152.108 65.1362 151.247 65.6435 151.022 66.4874L147.779 78.644C147.553 79.488 146.693 79.9953 145.845 79.7841L138.186 77.8743C137.318 77.658 136.796 76.7731 137.027 75.9095L140.244 63.854C140.474 62.9905 139.952 62.1056 139.085 61.8892L125.466 58.4934C124.618 58.2822 123.758 58.7895 123.533 59.6335L120.285 71.8058C120.061 72.6434 119.211 73.1507 118.368 72.9497L96.9604 67.8464C96.1071 67.6428 95.2491 68.1642 95.0366 69.0154L92.4019 79.5835C92.1881 80.4407 92.71 81.309 93.5671 81.5227L95.8703 82.097C98.4738 82.7464 99.1347 82.9022 99.9211 83.6053C100.714 84.3003 101.227 85.1029 101.407 86.0134C101.595 86.9073 101.308 88.826 100.577 91.7585L86.8343 146.877C86.1124 149.773 85.4784 151.548 84.8866 152.271C84.2948 153.013 83.4778 153.47 82.4375 153.727C81.4221 153.943 81.1802 153.713 78.5766 153.064L76.2735 152.49C75.4163 152.276 74.5476 152.798 74.3339 153.655L71.7005 164.218C71.4893 165.066 71.997 165.926 72.8418 166.151L93.702 171.7C94.5566 171.927 95.0647 172.804 94.8365 173.659L91.6113 185.747C91.3809 186.611 91.9027 187.496 92.7701 187.712L106.389 191.108C107.236 191.319 108.097 190.812 108.322 189.968L111.568 177.802C111.793 176.958 112.654 176.451 113.501 176.662L121.491 178.654C122.172 178.824 122.582 179.519 122.401 180.197L119.092 192.599C118.861 193.463 119.383 194.347 120.25 194.564L133.858 197.957C134.707 198.168 135.568 197.66 135.792 196.814L139.455 183.01C139.65 182.275 140.334 181.782 141.094 181.807C143.538 181.888 145.749 181.784 147.719 181.51C154.064 180.642 159.37 178.396 163.633 174.77C167.929 171.144 170.704 166.692 172.011 161.449C173.095 157.084 173.048 152.857 171.853 148.765ZM126.134 93.4319C126.348 92.5738 127.216 92.0516 128.074 92.2654L137.349 94.5779C143.673 96.1549 147.993 97.6529 150.248 99.0664C152.494 100.44 154.059 102.222 154.885 104.375C155.732 106.563 155.819 108.957 155.174 111.543C154.554 114.033 153.312 116.059 151.487 117.642C149.614 119.223 147.219 120.137 144.282 120.386C141.322 120.667 137.017 120.105 131.351 118.693L122.074 116.38C121.217 116.166 120.695 115.298 120.909 114.441L126.134 93.4319ZM141.882 160.616C139.328 162.568 136.619 163.629 133.64 163.7C130.713 163.793 127.137 163.322 122.934 162.274L115.718 160.475C113.322 159.878 111.884 159.371 111.394 158.976C110.897 158.608 110.646 158.043 110.561 157.328C110.528 156.75 110.828 154.955 111.562 151.894L116.509 132.051C116.723 131.194 117.591 130.672 118.449 130.886L129.679 133.686C135.328 135.094 139.325 136.641 141.81 138.375C144.277 140.091 145.972 142.14 146.79 144.521C147.671 146.879 147.761 149.509 147.024 152.464C146.165 155.929 144.456 158.621 141.882 160.616Z" fill="white" />
  <defs>
    <radialGradient id="paint0_radial_56_2" cx="0" cy="0" r="1" gradientUnits="userSpaceOnUse" gradientTransform="translate(60.2667 18.1333) rotate(63.6211) scale(256.881)">
      <stop stop-color="#FAE77F" />
      <stop offset="0.168269" stop-color="#EABF62" />
      <stop offset="0.81162" stop-color="#524651" />
      <stop offset="1" stop-color="#3D3545" />
    </radialGradient>
    <radialGradient id="paint1_radial_56_2" cx="0" cy="0" r="1" gradientUnits="userSpaceOnUse" gradientTransform="translate(57.0667 10.4) rotate(58.236) scale(275.065)">
      <stop stop-color="#FFE88E" />
      <stop offset="0.17835" stop-color="#F9CD67" />
      <stop offset="0.455552" stop-color="#F7A457" />
      <stop offset="0.928852" stop-color="#524651" />
      <stop offset="1" stop-color="#3D3545" />
    </radialGradient>
    <radialGradient id="paint2_radial_56_2" cx="0" cy="0" r="1" gradientUnits="userSpaceOnUse" gradientTransform="translate(57.0667 10.4) rotate(57.6468) scale(297.992)">
      <stop stop-color="#FFE88E" />
      <stop offset="0.17835" stop-color="#F9CD67" />
      <stop offset="0.455552" stop-color="#F79F57" />
      <stop offset="0.928852" stop-color="#524651" />
      <stop offset="1" stop-color="#3D3545" />
    </radialGradient>
    <radialGradient id="paint3_radial_56_2" cx="0" cy="0" r="1" gradientUnits="userSpaceOnUse" gradientTransform="translate(60.2667 18.1333) rotate(64.4069) scale(253.1)">
      <stop stop-color="#AD957E" />
      <stop offset="0.168269" stop-color="#9B8475" />
      <stop offset="0.620192" stop-color="#524651" />
      <stop offset="1" stop-color="#3D3545" />
    </radialGradient>
  </defs>
</svg>
