<svg width="256" height="256" viewBox="0 0 16 16" fill="none" xmlns="http://www.w3.org/2000/svg">
  <path d="M15.7608 9.93524C14.6924 14.221 10.3516 16.8292 6.06531 15.7605C1.78084 14.692 -0.827386 10.351 0.241541 6.06558C1.30953 1.77935 5.65031 -0.82907 9.93524 0.239387C14.2212 1.30785 16.8293 5.64936 15.7607 9.93532L15.7608 9.93524H15.7608Z" fill="#00C260"/>
  <path d="M7.99997 2C6.26731 2 2 6.26721 2 7.99996C2 9.73272 6.26731 14 7.99997 14C9.73261 14 14 9.73265 14 7.99996C14 6.26729 9.73267 2 7.99997 2ZM7.06498 11.431C6.33434 11.2318 4.36993 7.79561 4.56906 7.06496C4.7682 6.33427 8.20436 4.36992 8.93501 4.56905C9.66568 4.76815 11.6301 8.20432 11.431 8.93501C11.2319 9.66572 7.79562 11.6301 7.06498 11.431Z" fill="black"/>
</svg>
